<?xml version="1.0" encoding="utf-8"?>
<svg width="603px" height="591px" viewBox="0 0 603 591" version="1.1" xmlns:xlink="http://www.w3.org/1999/xlink" xmlns="http://www.w3.org/2000/svg">
  <desc>Created with Lunacy</desc>
  <path d="M648.939 286.346L675.978 286.346C684.991 286.346 691 292.416 691 301.522C691 310.627 684.991 316.697 675.978 316.697L648.939 316.697C621.9 330.355 513.743 510.946 510.739 547.368L527.263 579.237C531.77 586.824 530.267 595.93 522.757 600.482C521.254 602 518.25 602 515.246 602C509.237 602 504.73 598.965 501.726 594.412L485.202 565.578L483.7 564.061C473.185 559.508 426.617 551.92 343.998 551.92C261.378 551.92 213.309 557.991 204.296 564.061L202.793 565.578L186.27 594.412C183.265 598.965 177.257 602 172.75 602C169.746 602 168.243 602 165.239 600.482C159.23 595.93 156.226 586.824 160.733 579.237L180.261 547.368C177.257 510.946 69.1 331.873 42.0609 316.697L15.0217 316.697C6.0087 316.697 0 310.627 0 301.522C0 292.416 6.0087 286.346 15.0217 286.346L42.0609 286.346C69.1 271.17 177.257 92.0974 180.261 55.6758L162.235 23.8068C157.728 16.219 159.23 7.1136 166.741 2.56089C174.252 -1.99181 183.265 -0.47424 187.772 7.1136L204.296 35.9474L205.798 37.4649C216.313 43.5352 264.383 51.1231 345.5 51.1231C426.617 51.1231 474.687 43.5352 486.704 37.4649L488.207 35.9474L504.73 7.1136C509.237 1.04333 518.25 -1.99181 525.761 2.56089C531.77 7.1136 534.774 16.219 530.267 23.8068L510.739 55.6758C513.743 92.0974 621.9 271.17 648.939 286.346ZM464.172 75.4043C440.137 78.4394 402.582 81.4746 345.5 81.4746C288.417 81.4746 250.863 78.4394 226.828 73.8867L268.889 145.212C276.4 148.248 303.439 151.283 345.5 151.283C387.561 151.283 414.6 148.248 422.111 145.212L464.172 75.4043ZM163.737 164.94C183.265 131.554 193.781 107.273 201.291 89.062L243.352 160.388C237.344 184.669 178.759 274.205 160.733 286.346L84.1218 286.346C115.667 249.924 150.217 189.221 163.737 164.94ZM527.263 164.94C540.782 189.221 575.333 248.407 606.878 286.346L528.765 286.346C510.739 274.205 453.656 184.669 446.146 160.388L488.206 89.062C497.219 107.273 509.237 131.554 527.263 164.94ZM289.919 178.599C303.439 180.116 321.465 181.634 345.5 181.634C369.535 181.634 387.561 180.116 401.08 178.599L345.5 272.688L289.919 178.599ZM318.461 286.346L262.88 192.257C259.876 196.81 256.872 202.88 253.867 208.95C252.365 211.985 228.33 255.995 202.793 286.346L318.461 286.346ZM372.539 286.346L428.12 192.257C431.124 196.81 434.128 202.88 437.133 208.95C438.635 211.985 464.172 255.995 488.206 286.346L372.539 286.346ZM84.1218 316.697C115.667 354.636 150.217 413.822 163.737 438.103C181.763 471.489 193.781 495.77 201.291 513.981L244.854 442.655C237.344 418.374 180.261 328.838 162.235 316.697L84.1218 316.697ZM253.867 394.093C252.365 391.058 226.828 347.049 202.793 316.697L318.461 316.697L262.88 410.786C259.876 406.234 256.872 400.163 253.867 394.093ZM372.539 316.697L428.12 410.786C431.124 406.234 434.128 400.163 437.133 394.093C438.635 391.058 462.669 347.049 488.206 316.697L372.539 316.697ZM489.709 513.981C497.22 495.77 507.735 471.489 527.263 438.103C540.783 413.822 575.333 353.119 608.381 316.697L530.268 316.697C512.241 328.838 453.657 418.374 447.648 442.655L489.709 513.981ZM401.08 424.445L345.5 330.355L289.919 424.445C303.439 422.927 321.465 421.409 345.5 421.409C369.535 421.409 387.561 422.927 401.08 424.445ZM345.5 521.569C288.417 521.569 250.863 524.604 226.828 527.639L268.889 457.831C276.4 454.796 303.439 451.761 345.5 451.761C387.561 451.761 414.6 454.796 422.111 457.831L464.172 527.639C440.137 524.604 402.582 521.569 345.5 521.569Z" transform="translate(-88 0)" id="Shape" fill="#F6F8F9" fill-opacity="0.404459625" fill-rule="evenodd" stroke="none" />
</svg>