<?xml version="1.0" encoding="utf-8"?>
<svg width="47px" height="41px" viewBox="0 0 47 41" version="1.1" xmlns:xlink="http://www.w3.org/1999/xlink" xmlns="http://www.w3.org/2000/svg">
  <desc>Created with Lunacy</desc>
  <g id="LOGO">
    <g id="net">
      <path d="M44.1391 19.502L45.9783 19.502C46.5913 19.502 47 19.9154 47 20.5355C47 21.1557 46.5913 21.5691 45.9783 21.5691L44.1391 21.5691C42.3 22.4993 34.9435 34.7986 34.7391 37.2792L35.863 39.4497C36.1696 39.9664 36.0674 40.5866 35.5565 40.8966C35.4543 41 35.25 41 35.0457 41C34.637 41 34.3304 40.7933 34.1261 40.4832L33.0022 38.5195L32.9 38.4161C32.1848 38.106 29.0174 37.5893 23.3978 37.5893C17.7783 37.5893 14.5087 38.0027 13.8957 38.4161L13.7935 38.5195L12.6696 40.4832C12.4652 40.7933 12.0565 41 11.75 41C11.5457 41 11.4435 41 11.2391 40.8966C10.8304 40.5866 10.6261 39.9664 10.9326 39.4497L12.2609 37.2792C12.0565 34.7986 4.7 22.6026 2.86087 21.5691L1.02174 21.5691C0.408696 21.5691 0 21.1557 0 20.5355C0 19.9154 0.408696 19.502 1.02174 19.502L2.86087 19.502C4.7 18.4684 12.0565 6.27241 12.2609 3.79187L11.0348 1.6214C10.7283 1.10462 10.8304 0.484481 11.3413 0.174413C11.8522 -0.135655 12.4652 -0.0322987 12.7717 0.484481L13.8957 2.44824L13.9978 2.5516C14.713 2.96502 17.9826 3.4818 23.5 3.4818C29.0174 3.4818 32.287 2.96502 33.1043 2.5516L33.2065 2.44824L34.3304 0.484481C34.637 0.0710572 35.25 -0.135655 35.7609 0.174413C36.1696 0.484481 36.3739 1.10462 36.0674 1.6214L34.7391 3.79187C34.9435 6.27241 42.3 18.4684 44.1391 19.502ZM31.5717 5.1355C29.937 5.34221 27.3826 5.54892 23.5 5.54892C19.6174 5.54892 17.063 5.34221 15.4283 5.03214L18.2891 9.88987C18.8 10.0966 20.6391 10.3033 23.5 10.3033C26.3609 10.3033 28.2 10.0966 28.7109 9.88987L31.5717 5.1355ZM11.137 11.2335C12.4652 8.95967 13.1804 7.30597 13.6913 6.0657L16.5522 10.9234C16.1435 12.5771 12.1587 18.6751 10.9326 19.502L5.72174 19.502C7.86739 17.0214 10.2174 12.8872 11.137 11.2335ZM35.863 11.2335C36.7826 12.8872 39.1326 16.9181 41.2783 19.502L35.9652 19.502C34.7391 18.6751 30.8565 12.5771 30.3457 10.9234L33.2065 6.0657C33.8196 7.30597 34.637 8.95967 35.863 11.2335ZM19.7196 12.1637C20.6391 12.2671 21.8652 12.3704 23.5 12.3704C25.1348 12.3704 26.3609 12.2671 27.2804 12.1637L23.5 18.5718L19.7196 12.1637ZM21.6609 19.502L17.8804 13.0939C17.6761 13.404 17.4717 13.8174 17.2674 14.2308C17.1652 14.4375 15.5304 17.4349 13.7935 19.502L21.6609 19.502ZM25.3391 19.502L29.1196 13.0939C29.3239 13.404 29.5283 13.8174 29.7326 14.2308C29.8348 14.4375 31.5717 17.4349 33.2065 19.502L25.3391 19.502ZM5.72174 21.5691C7.86739 24.153 10.2174 28.1839 11.137 29.8376C12.363 32.1114 13.1804 33.7651 13.6913 35.0054L16.6543 30.1476C16.1435 28.4939 12.2609 22.3959 11.0348 21.5691L5.72174 21.5691ZM17.2674 26.8402C17.1652 26.6335 15.4283 23.6362 13.7935 21.5691L21.6609 21.5691L17.8804 27.9772C17.6761 27.6671 17.4717 27.2537 17.2674 26.8402ZM25.3391 21.5691L29.1196 27.9772C29.3239 27.6671 29.5283 27.2537 29.7326 26.8402C29.8348 26.6335 31.4696 23.6362 33.2065 21.5691L25.3391 21.5691ZM33.3087 35.0054C33.8196 33.7651 34.5348 32.1114 35.863 29.8376C36.7826 28.1839 39.1326 24.0496 41.3804 21.5691L36.0674 21.5691C34.8413 22.3959 30.8565 28.4939 30.4478 30.1476L33.3087 35.0054ZM27.2804 28.9074L23.5 22.4993L19.7196 28.9074C20.6391 28.804 21.8652 28.7006 23.5 28.7006C25.1348 28.7006 26.3609 28.804 27.2804 28.9074ZM23.5 35.5221C19.6174 35.5221 17.063 35.7289 15.4283 35.9356L18.2891 31.1812C18.8 30.9745 20.6391 30.7678 23.5 30.7678C26.3609 30.7678 28.2 30.9745 28.7109 31.1812L31.5717 35.9356C29.937 35.7289 27.3826 35.5221 23.5 35.5221Z" id="Shape" fill="#FC5C42" fill-rule="evenodd" stroke="none" />
    </g>
  </g>
</svg>