<?xml version="1.0" encoding="utf-8"?>
<svg width="33px" height="29px" viewBox="0 0 33 29" version="1.1" xmlns:xlink="http://www.w3.org/1999/xlink" xmlns="http://www.w3.org/2000/svg">
  <desc>Created with Lunacy</desc>
  <path d="M30.9913 13.7941L32.2826 13.7941C32.713 13.7941 33 14.0865 33 14.5251C33 14.9638 32.713 15.2562 32.2826 15.2562L30.9913 15.2562C29.7 15.9141 24.5348 24.6137 24.3913 26.3682L25.1804 27.9034C25.3957 28.2689 25.3239 28.7076 24.9652 28.9269C24.8935 29 24.75 29 24.6065 29C24.3196 29 24.1043 28.8538 23.9609 28.6345L23.1717 27.2455L23.1 27.1724C22.5978 26.953 20.3739 26.5875 16.4283 26.5875C12.4826 26.5875 10.187 26.8799 9.75652 27.1724L9.68478 27.2455L8.89565 28.6345C8.75217 28.8538 8.46522 29 8.25 29C8.10652 29 8.03478 29 7.8913 28.9269C7.60435 28.7076 7.46087 28.2689 7.67609 27.9034L8.6087 26.3682C8.46522 24.6137 3.3 15.9872 2.0087 15.2562L0.717391 15.2562C0.286957 15.2562 0 14.9638 0 14.5251C0 14.0865 0.286957 13.7941 0.717391 13.7941L2.0087 13.7941C3.3 13.063 8.46522 4.43658 8.6087 2.68205L7.74783 1.14684C7.53261 0.781314 7.60435 0.342682 7.96304 0.123365C8.32174 -0.0959508 8.75217 -0.0228454 8.96739 0.342682L9.75652 1.73168L9.82826 1.80479C10.3304 2.09721 12.6261 2.46274 16.5 2.46274C20.3739 2.46274 22.6696 2.09721 23.2435 1.80479L23.3152 1.73168L24.1043 0.342682C24.3196 0.05026 24.75 -0.0959508 25.1087 0.123365C25.3957 0.342682 25.5391 0.781314 25.3239 1.14684L24.3913 2.68205C24.5348 4.43658 29.7 13.063 30.9913 13.7941ZM22.1673 3.63243C21.0195 3.77864 19.226 3.92485 16.4999 3.92485C13.7738 3.92485 11.9803 3.77864 10.8325 3.55933L12.8412 6.99528C13.1999 7.14149 14.4912 7.2877 16.4999 7.2877C18.5086 7.2877 19.7999 7.14149 20.1586 6.99528L22.1673 3.63243ZM7.81975 7.94564C8.75236 6.33733 9.25453 5.16764 9.61323 4.29037L11.6219 7.72633C11.335 8.89602 8.53714 13.2092 7.67627 13.7941L4.01758 13.7941C5.5241 12.0395 7.1741 9.11533 7.81975 7.94564ZM25.1806 7.94564C25.8262 9.11533 27.4762 11.9664 28.9827 13.7941L25.2523 13.7941C24.3914 13.2092 21.6653 8.89602 21.3066 7.72633L23.3153 4.29037C23.7458 5.16764 24.3197 6.33733 25.1806 7.94564ZM13.8457 8.60359C14.4914 8.6767 15.3522 8.7498 16.5 8.7498C17.6479 8.7498 18.5087 8.6767 19.1544 8.60359L16.5 13.1361L13.8457 8.60359ZM15.2085 13.7941L12.5541 9.26154C12.4107 9.48085 12.2672 9.77327 12.1237 10.0657C12.052 10.2119 10.9041 12.332 9.68457 13.7941L15.2085 13.7941ZM17.7915 13.7941L20.4459 9.26154C20.5893 9.48085 20.7328 9.77327 20.8763 10.0657C20.948 10.2119 22.1676 12.332 23.3154 13.7941L17.7915 13.7941ZM4.01758 15.2562C5.5241 17.0838 7.1741 19.9349 7.81975 21.1046C8.68062 22.7129 9.25453 23.8826 9.61323 24.7599L11.6937 21.3239C11.335 20.1542 8.60888 15.841 7.74801 15.2562L4.01758 15.2562ZM12.1237 18.9846C12.052 18.8383 10.8324 16.7183 9.68457 15.2562L15.2085 15.2562L12.5541 19.7887C12.4107 19.5694 12.2672 19.277 12.1237 18.9846ZM17.7915 15.2562L20.4459 19.7887C20.5893 19.5694 20.7328 19.277 20.8763 18.9846C20.948 18.8383 22.0959 16.7183 23.3154 15.2562L17.7915 15.2562ZM23.3871 24.7599C23.7458 23.8826 24.248 22.7129 25.1806 21.1046C25.8262 19.9349 27.4762 17.0107 29.0545 15.2562L25.3241 15.2562C24.4632 15.841 21.6654 20.1542 21.3784 21.3239L23.3871 24.7599ZM19.1544 20.4467L16.5 15.9141L13.8457 20.4467C14.4914 20.3736 15.3522 20.3005 16.5 20.3005C17.6479 20.3005 18.5087 20.3736 19.1544 20.4467ZM16.4999 25.1254C13.7738 25.1254 11.9803 25.2716 10.8325 25.4178L12.8412 22.055C13.1999 21.9088 14.4912 21.7626 16.4999 21.7626C18.5086 21.7626 19.7999 21.9088 20.1586 22.055L22.1673 25.4178C21.0195 25.2716 19.226 25.1254 16.4999 25.1254Z" id="Shape" fill="#FC5C42" fill-rule="evenodd" stroke="none" />
</svg>